<?xml version="1.0" encoding="UTF-8" standalone="no"?>
<svg height="100%" stroke-miterlimit="10"
    style="fill-rule:nonzero;clip-rule:evenodd;stroke-linecap:round;stroke-linejoin:round;"
    version="1.1" viewBox="0 0 2729.76 1450.19" width="100%" xml:space="preserve"
    xmlns="http://www.w3.org/2000/svg" xmlns:xlink="http://www.w3.org/1999/xlink">
<defs/>
<g id="Layer-1">
<path d="M425.224 186.138C401.224 188.638 377.224 193.388 353.224 200.388C329.224 207.388 309.224 215.638 293.224 225.138C277.224 234.638 265.224 243.638 257.224 252.138C249.224 260.638 242.974 269.388 238.474 278.388C233.974 287.388 229.474 303.388 224.974 326.388C220.474 349.388 217.474 372.888 215.974 396.888C215.224 408.888 214.474 420.888 213.724 432.888C237.724 432.888 261.724 432.888 285.724 432.888C333.724 432.888 357.832 433.03 357.832 433.03L357.94 474.236C357.94 474.236 236.724 474.888 212.224 474.888C212.224 486.138 212.224 531.138 212.224 542.388C236.474 542.388 357.818 542.851 357.818 542.851C357.818 542.851 357.69 577.704 357.94 584.704C333.69 584.704 211.562 584.124 211.562 584.124C211.562 584.124 211.224 640.638 210.724 651.888C235.224 651.888 358.146 652.351 358.146 652.351C358.146 652.351 357.69 686.888 357.94 693.888C333.44 694.138 235.761 694.496 211.261 694.746C211.261 708.496 211.582 722.888 211.582 736.638C211.582 764.138 213.224 790.888 215.224 816.888C217.224 842.888 220.224 863.638 224.224 879.138C228.224 894.638 233.974 908.638 241.474 921.138C248.974 933.638 257.474 944.138 266.974 952.638C276.474 961.138 287.474 968.388 299.974 974.388C312.474 980.388 324.974 985.638 337.474 990.138C349.974 994.638 363.224 998.138 377.224 1000.64C391.224 1003.14 416.474 1004.89 452.974 1005.89C489.474 1006.89 519.474 1006.64 542.974 1005.14C566.474 1003.64 586.974 1000.64 604.474 996.138C621.974 991.638 640.224 984.888 659.224 975.888C678.224 966.888 691.474 958.888 698.974 951.888C706.474 944.888 712.724 937.888 717.724 930.888C722.724 923.888 727.974 913.388 733.474 899.388C738.974 885.388 743.224 866.888 746.224 843.888C749.224 820.888 750.974 790.388 751.474 752.388C751.724 733.388 751.974 713.746 752.224 694.746C727.974 694.746 606.722 694.746 606.722 694.746C606.722 694.746 606.724 659.138 606.724 651.888C630.974 651.888 727.974 651.888 752.224 651.888C752.224 640.888 751.903 595.284 751.903 584.284C727.653 584.034 630.974 584.638 606.724 584.388C606.724 577.388 606.724 549.388 606.724 542.388C630.974 542.388 727.974 542.388 752.224 542.388C752.224 531.138 752.224 486.138 752.224 474.888C727.974 474.888 630.974 474.888 606.724 474.888C606.724 467.888 606.724 439.888 606.724 432.888C630.724 432.888 726.724 432.888 750.724 432.888C749.474 417.138 748.224 401.388 746.974 385.638C744.474 354.138 741.724 331.388 738.724 317.388C735.724 303.388 732.224 291.888 728.224 282.888C724.224 273.888 717.474 264.138 707.974 253.638C698.474 243.138 689.974 235.388 682.474 230.388C674.974 225.388 664.724 219.888 651.724 213.888C638.724 207.888 622.724 202.388 603.724 197.388C584.724 192.388 563.224 188.638 539.224 186.138C515.224 183.638 496.224 182.388 482.224 182.388C468.224 182.388 449.224 183.638 425.224 186.138Z" fill="#000000" fill-rule="nonzero" opacity="1" stroke="none"/>
<path d="M2402.97 240.138C2397.47 241.638 2392.22 243.888 2387.22 246.888C2382.22 249.888 2375.72 255.638 2367.72 264.138C2359.72 272.638 2352.97 282.638 2347.47 294.138C2341.97 305.638 2337.72 317.388 2334.72 329.388C2331.72 341.388 2330.22 390.138 2330.22 475.638C2330.22 561.138 2332.22 612.388 2336.22 629.388C2340.22 646.388 2344.47 659.638 2348.97 669.138C2353.47 678.638 2357.72 686.138 2361.72 691.638C2365.72 697.138 2370.72 702.388 2376.72 707.388C2382.72 712.388 2466.72 759.638 2478.72 765.138C2490.72 770.638 2499.22 776.388 2504.22 782.388C2509.22 788.388 2512.47 794.638 2513.97 801.138C2515.47 807.638 2516.22 838.638 2516.22 894.138C2516.22 949.638 2515.47 981.138 2513.97 988.638C2512.47 996.138 2509.72 1002.14 2505.72 1006.64C2501.72 1011.14 2498.22 1013.89 2495.22 1014.89C2492.22 1015.89 2483.97 1016.39 2470.47 1016.39C2456.97 1016.39 2448.47 1015.64 2444.97 1014.14C2441.47 1012.64 2438.72 1010.89 2436.72 1008.89C2434.72 1006.89 2432.47 1002.39 2429.97 995.388C2427.47 988.388 2426.22 959.638 2426.22 909.138C2426.22 883.888 2426.22 858.638 2426.22 833.388C2409.97 833.388 2393.72 833.388 2377.47 833.388C2361.22 833.388 2344.97 833.388 2328.72 833.388C2328.97 866.138 2329.22 898.888 2329.47 931.638C2329.97 997.138 2331.72 1036.14 2334.72 1048.64C2337.72 1061.14 2340.97 1071.39 2344.47 1079.39C2347.97 1087.39 2352.47 1095.39 2357.97 1103.39C2363.47 1111.39 2367.72 1116.89 2370.72 1119.89C2373.72 1122.89 2393.96 1140.1 2408.97 1140.47C2410.09 1140.5 2430.22 1140.89 2471.22 1140.89C2512.22 1140.89 2533.75 1140.57 2533.75 1140.57C2543.14 1140.24 2558.22 1129.64 2564.22 1125.14C2570.22 1120.64 2575.72 1115.14 2580.72 1108.64C2585.72 1102.14 2591.47 1090.89 2597.97 1074.89C2604.47 1058.89 2608.72 1041.64 2610.72 1023.14C2612.72 1004.64 2613.72 963.388 2613.72 899.388C2613.72 835.388 2613.22 795.138 2612.22 778.638C2611.22 762.138 2608.72 745.888 2604.72 729.888C2600.72 713.888 2596.72 702.138 2592.72 694.638C2588.72 687.138 2586.22 683.388 2585.22 683.388C2584.22 683.388 2581.47 680.138 2576.97 673.638C2572.47 667.138 2568.97 663.388 2566.47 662.388C2563.97 661.388 2561.47 659.388 2558.97 656.388C2556.47 653.388 2537.22 642.138 2501.22 622.638C2465.22 603.138 2444.47 590.638 2438.97 585.138C2433.47 579.638 2429.97 574.388 2428.47 569.388C2426.97 564.388 2426.22 534.138 2426.22 478.638C2426.22 423.138 2427.47 391.638 2429.97 384.138C2432.47 376.638 2435.47 371.388 2438.97 368.388C2442.47 365.388 2453.22 363.888 2471.22 363.888C2480.22 363.888 2489.22 363.888 2498.22 363.888C2498.22 364.388 2498.22 364.888 2498.22 365.388C2498.22 365.888 2498.22 366.388 2498.22 366.888C2498.97 366.888 2499.72 366.888 2500.47 366.888C2501.97 366.888 2504.22 369.138 2507.22 373.638C2510.22 378.138 2512.47 383.638 2513.97 390.138C2515.47 396.638 2516.22 424.388 2516.22 473.388C2516.22 497.888 2516.22 522.388 2516.22 546.888C2532.22 546.888 2548.22 546.888 2564.22 546.888C2580.22 546.888 2596.22 546.888 2612.22 546.888C2612.47 519.638 2612.72 492.388 2612.97 465.138C2613.47 410.638 2613.22 376.888 2612.22 363.888C2611.22 350.888 2609.47 339.138 2606.97 328.638C2604.47 318.138 2600.72 307.388 2595.72 296.388C2590.72 285.388 2582.47 274.138 2570.97 262.638C2559.47 251.138 2549.72 244.138 2541.72 241.638C2533.72 239.138 2509.97 237.888 2470.47 237.888C2430.97 237.888 2408.47 238.638 2402.97 240.138Z" fill="#000000" fill-rule="nonzero" opacity="1" stroke="none"/>
<path d="M957.724 689.388C957.724 837.888 957.724 986.388 957.724 1134.89C991.224 1134.89 1024.72 1134.89 1058.22 1134.89C1125.22 1134.89 1159.9 1134.66 1161.02 1134.59C1177.7 1133.54 1191.22 1120.39 1199.22 1112.39C1207.22 1104.39 1213.97 1095.39 1219.47 1085.39C1224.97 1075.39 1232.38 1057.11 1236.88 1040.61C1241.38 1024.11 1241.47 913.638 1241.97 699.138C1242.47 484.638 1241.72 370.388 1239.72 356.388C1237.72 342.388 1234.47 329.138 1229.97 316.638C1225.47 304.138 1221.47 294.888 1217.97 288.888C1214.47 282.888 1209.97 276.888 1204.47 270.888C1198.97 264.888 1191.47 259.138 1181.97 253.638C1172.47 248.138 1132.72 245.138 1062.72 244.638C1027.72 244.388 992.724 244.138 957.724 243.888C957.724 392.388 957.724 540.888 957.724 689.388ZM1055.22 369.888C1066.97 369.888 1078.72 369.888 1090.47 369.888C1113.97 369.888 1127.47 371.138 1130.97 373.638C1134.47 376.138 1137.72 381.888 1140.72 390.888C1143.72 399.888 1145.22 499.638 1145.22 690.138C1145.22 880.638 1143.97 979.638 1141.47 987.138C1138.97 994.638 1135.72 1000.14 1131.72 1003.64C1127.72 1007.14 1113.97 1008.89 1090.47 1008.89C1078.72 1008.89 1066.97 1008.89 1055.22 1008.89C1055.22 902.388 1055.22 795.888 1055.22 689.388C1055.22 582.888 1055.22 476.388 1055.22 369.888Z" fill="#000000" fill-rule="nonzero" opacity="1" stroke="none"/>
<path d="M1300.47 689.388C1300.22 837.888 1299.97 986.388 1299.72 1134.89C1333.47 1134.89 1367.22 1134.89 1400.97 1134.89C1468.47 1134.89 1502.47 1134.39 1502.97 1133.39C1503.47 1132.39 1505.47 1131.89 1508.97 1131.89C1512.47 1131.89 1518.22 1129.64 1526.22 1125.14C1534.22 1120.64 1541.47 1114.64 1547.97 1107.14C1554.47 1099.64 1560.97 1088.64 1567.47 1074.14C1573.97 1059.64 1578.47 1045.89 1580.97 1032.89C1583.47 1019.89 1584.97 977.638 1585.47 906.138C1585.97 834.638 1585.72 794.138 1584.72 784.638C1583.72 775.138 1582.22 765.638 1580.22 756.138C1578.22 746.638 1574.97 736.388 1570.47 725.388C1565.97 714.388 1561.47 705.638 1556.97 699.138C1552.47 692.638 1547.22 686.888 1541.22 681.888C1538.22 679.388 1535.22 676.888 1532.22 674.388C1535.22 671.138 1538.22 667.888 1541.22 664.638C1547.22 658.138 1553.22 649.638 1559.22 639.138C1565.22 628.638 1570.22 615.388 1574.22 599.388C1578.22 583.388 1580.47 542.138 1580.97 475.638C1581.47 409.138 1580.97 370.138 1579.47 358.638C1577.97 347.138 1575.72 336.138 1572.72 325.638C1569.72 315.138 1565.47 304.888 1559.97 294.888C1554.47 284.888 1549.72 277.388 1545.72 272.388C1541.72 267.388 1536.47 262.638 1529.97 258.138C1523.47 253.638 1510.84 243.702 1500.8 243.622C1500.8 243.622 1439.03 242.741 1404.53 242.491C1370.03 242.241 1333.89 243.153 1299.39 242.903C1299.14 391.403 1300.72 540.888 1300.47 689.388ZM1398.72 369.888C1409.97 369.888 1421.22 369.888 1432.47 369.888C1454.97 369.888 1467.97 371.138 1471.47 373.638C1474.97 376.138 1477.97 380.138 1480.47 385.638C1482.97 391.138 1484.47 424.138 1484.97 484.638C1485.47 545.138 1484.97 579.638 1483.47 588.138C1481.97 596.638 1479.22 603.388 1475.22 608.388C1471.22 613.388 1457.47 616.138 1433.97 616.638C1422.22 616.888 1410.47 617.138 1398.72 617.388C1398.72 576.138 1398.72 534.888 1398.72 493.638C1398.72 452.388 1398.72 411.138 1398.72 369.888ZM1398.72 734.388C1410.47 734.388 1422.22 734.388 1433.97 734.388C1445.72 734.388 1457.47 734.388 1469.22 734.388C1469.22 734.888 1479.47 742.888 1481.97 747.888C1484.47 752.888 1486.22 757.888 1487.22 762.888C1488.22 767.888 1488.72 803.888 1488.72 870.888C1488.72 937.888 1487.22 976.138 1484.22 985.638C1481.22 995.138 1477.72 1001.39 1473.72 1004.39C1469.72 1007.39 1456.22 1008.89 1433.22 1008.89C1421.72 1008.89 1410.22 1008.89 1398.72 1008.89C1398.72 963.138 1398.72 917.388 1398.72 871.638C1398.72 825.888 1398.72 780.138 1398.72 734.388Z" fill="#000000" fill-rule="nonzero" opacity="1" stroke="none"/>
<path d="M1643.22 689.388C1643.22 837.888 1643.22 986.388 1643.22 1134.89C1659.47 1134.89 1675.72 1134.89 1691.97 1134.89C1708.22 1134.89 1724.47 1134.89 1740.72 1134.89C1740.97 1073.39 1741.22 1011.89 1741.47 950.388C1741.72 888.888 1741.97 827.388 1742.22 765.888C1753.97 766.138 1765.72 766.388 1777.47 766.638C1800.97 767.138 1814.47 769.138 1817.97 772.638C1821.47 776.138 1824.22 780.638 1826.22 786.138C1828.22 791.638 1829.22 851.138 1829.22 964.638C1829.22 1021.39 1829.22 1078.14 1829.22 1134.89C1845.72 1134.89 1862.22 1134.89 1878.72 1134.89C1895.22 1134.89 1911.72 1134.89 1928.22 1134.89C1928.22 1083.14 1928.22 1031.39 1928.22 979.638C1928.22 876.138 1927.72 819.138 1926.72 808.638C1925.72 798.138 1924.22 788.638 1922.22 780.138C1920.22 771.638 1917.22 762.888 1913.22 753.888C1909.22 744.888 1903.97 736.638 1897.47 729.138C1890.97 721.638 1873.51 708.397 1870.51 706.897C1870.51 706.897 1895.47 683.888 1898.97 678.888C1902.47 673.888 1906.22 667.138 1910.22 658.638C1914.22 650.138 1917.72 640.138 1920.72 628.638C1923.72 617.138 1925.72 605.888 1926.72 594.888C1927.72 583.888 1928.22 546.388 1928.22 482.388C1928.22 418.388 1927.72 380.638 1926.72 369.138C1925.72 357.638 1923.72 345.888 1920.72 333.888C1917.72 321.888 1913.97 311.138 1909.47 301.638C1904.97 292.138 1900.72 284.638 1896.72 279.138C1892.72 273.638 1888.22 268.638 1883.22 264.138C1878.22 259.638 1871.97 255.393 1864.47 251.388C1846.85 241.975 1819.02 243.347 1749.02 242.847C1714.02 242.597 1676.63 242.944 1641.63 242.694C1641.63 391.194 1643.22 540.888 1643.22 689.388ZM1740.72 369.888C1752.22 369.888 1763.72 369.888 1775.22 369.888C1798.22 369.888 1811.22 370.638 1814.22 372.138C1817.22 373.638 1820.22 376.888 1823.22 381.888C1826.22 386.888 1827.97 426.638 1828.47 501.138C1828.97 575.638 1827.97 616.138 1825.47 622.638C1822.97 629.138 1819.47 633.888 1814.97 636.888C1810.47 639.888 1796.97 641.388 1774.47 641.388C1763.22 641.388 1751.97 641.388 1740.72 641.388C1740.72 596.138 1740.72 550.888 1740.72 505.638C1740.72 460.388 1740.72 415.138 1740.72 369.888Z" fill="#000000" fill-rule="nonzero" opacity="1" stroke="none"/>
<path d="M1985.97 628.638C1985.47 885.138 1986.22 1019.64 1988.22 1032.14C1990.22 1044.64 1991.97 1053.64 1993.47 1059.14C1994.97 1064.64 1998.72 1073.39 2004.72 1085.39C2010.72 1097.39 2016.72 1106.89 2022.72 1113.89C2028.72 1120.89 2047.88 1138.58 2065.47 1139.39C2065.47 1139.39 2086.72 1140.89 2127.72 1140.89C2168.72 1140.89 2189.97 1140.6 2189.97 1140.6C2209.06 1139.8 2234.72 1112.64 2238.72 1107.14C2242.72 1101.64 2247.22 1093.64 2252.22 1083.14C2257.22 1072.64 2262.21 1058.14 2265.71 1039.64C2269.21 1021.14 2270.22 884.138 2270.22 628.638C2270.22 500.888 2270.22 373.138 2270.22 245.388C2253.97 245.138 2237.72 244.888 2221.47 244.638C2205.22 244.388 2188.97 244.138 2172.72 243.888C2172.72 367.138 2172.72 490.388 2172.72 613.638C2172.72 860.138 2171.47 987.138 2168.97 994.638C2166.47 1002.14 2163.72 1007.14 2160.72 1009.64C2157.72 1012.14 2154.72 1013.89 2151.72 1014.89C2148.72 1015.89 2140.47 1016.39 2126.97 1016.39C2113.47 1016.39 2103.97 1014.64 2098.47 1011.14C2092.97 1007.64 2088.97 1002.39 2086.47 995.388C2083.97 988.388 2082.72 861.388 2082.72 614.388C2082.72 490.888 2082.72 367.388 2082.72 243.888C2066.72 243.888 2050.72 243.888 2034.72 243.888C2018.72 243.888 2002.72 243.888 1986.72 243.888C1986.47 372.138 1986.22 500.388 1985.97 628.638Z" fill="#000000" fill-rule="nonzero" opacity="1" stroke="none"/>
<path d="M81.3182 748.341C78.5853 763.875 80.2394 828.878 81.104 840.888C83.8833 879.495 99.6678 1033.23 348.724 1088.39C368.637 1092.8 410.177 1097.19 426.677 1098.69L427.398 1215.89C427.398 1215.89 216.974 1215.89 174.724 1215.89C174.724 1227.39 174.724 1238.89 174.724 1250.39C174.724 1261.89 174.724 1273.39 174.724 1284.89C581.224 1284.89 987.724 1284.89 1394.22 1284.89C1800.72 1284.89 2207.22 1284.89 2613.72 1284.89C2613.72 1273.39 2613.72 1261.89 2613.72 1250.39C2613.72 1238.89 2613.72 1227.39 2613.72 1215.89C2267.72 1215.89 1921.72 1215.89 1575.72 1215.89C1229.72 1215.89 883.724 1215.89 537.724 1215.89C537.724 1196.39 537.562 1098.48 537.562 1098.48C563.811 1097.38 595.724 1092.39 615.724 1088.39C635.724 1084.39 658.724 1077.64 684.724 1068.14C710.724 1058.64 730.974 1049.89 745.474 1041.89C759.974 1033.89 771.974 1026.39 781.474 1019.39C790.974 1012.39 804.974 998.638 823.474 978.138C841.974 957.638 855.474 937.138 863.974 916.638C872.474 896.138 877.974 876.388 880.474 857.388C882.974 838.388 883.974 815.888 883.474 789.888C882.974 763.888 881.224 747.138 878.224 739.638C875.224 732.138 871.474 726.888 866.974 723.888C862.474 720.888 856.974 719.138 850.474 718.638C843.974 718.138 839.224 718.388 836.224 719.388C833.224 720.388 829.474 722.888 824.974 726.888C820.474 730.888 817.474 734.638 815.974 738.138C814.474 741.638 813.974 756.888 814.474 783.888C814.974 810.888 814.224 832.138 812.224 847.638C810.224 863.138 805.474 879.388 797.974 896.388C790.474 913.388 783.974 925.888 778.474 933.888C772.974 941.888 766.724 949.388 759.724 956.388C752.724 963.388 738.724 972.888 717.724 984.888C696.724 996.888 673.724 1006.89 648.724 1014.89C623.724 1022.89 598.974 1028.64 574.474 1032.14C549.974 1035.64 524.224 1037.64 497.224 1038.14C470.224 1038.64 444.963 1038.01 421.474 1035.89C174.924 1013.58 157.251 880.107 151.811 851.192C149.097 836.772 147.826 812.605 149.224 783.138C151.862 727.499 139.491 721.04 117.137 717.53C101.361 715.052 84.7961 728.573 81.3182 748.341Z" fill="#000000" fill-rule="nonzero" opacity="1" stroke="none"/>
<path d="M786.453 280.939C786.453 270.374 796.127 261.81 808.06 261.81C819.993 261.81 829.666 270.374 829.666 280.939C829.666 291.504 819.993 300.069 808.06 300.069C796.127 300.069 786.453 291.504 786.453 280.939Z" fill="#000000" fill-rule="nonzero" opacity="1" stroke="none"/>
<path d="M123.235 150.834C123.235 114.19 152.852 84.4833 189.387 84.4833C225.922 84.4833 255.539 114.19 255.539 150.834C255.539 187.479 225.922 217.185 189.387 217.185C152.852 217.185 123.235 187.479 123.235 150.834Z" fill="#000000" fill-rule="nonzero" opacity="1" stroke="none"/>
<path d="M147.929 280.02C147.929 265.851 159.577 254.364 173.944 254.364C188.312 254.364 199.959 265.851 199.959 280.02C199.959 294.189 188.312 305.675 173.944 305.675C159.577 305.675 147.929 294.189 147.929 280.02Z" fill="#000000" fill-rule="nonzero" opacity="1" stroke="none"/>
<path d="M682.102 153.727C682.102 139.603 693.608 128.154 707.802 128.154C721.995 128.154 733.501 139.603 733.501 153.727C733.501 167.85 721.995 179.3 707.802 179.3C693.608 179.3 682.102 167.85 682.102 153.727Z" fill="#000000" fill-rule="nonzero" opacity="1" stroke="none"/>
<path d="M122.506 649.352C122.506 639.103 130.42 630.796 140.183 630.796C149.945 630.796 157.86 639.103 157.86 649.352C157.86 659.6 149.945 667.908 140.183 667.908C130.42 667.908 122.506 659.6 122.506 649.352Z" fill="#000000" fill-rule="nonzero" opacity="1" stroke="none"/>
<path d="M92.1202 558.895C92.1202 541.929 106.6 528.176 124.461 528.176C142.322 528.176 156.801 541.929 156.801 558.895C156.801 575.86 142.322 589.614 124.461 589.614C106.6 589.614 92.1202 575.86 92.1202 558.895Z" fill="#000000" fill-rule="nonzero" opacity="1" stroke="none"/>
<path d="M363.607 109.149C363.607 92.1245 377.85 78.3233 395.421 78.3233C412.992 78.3233 427.236 92.1245 427.236 109.149C427.236 126.174 412.992 139.975 395.421 139.975C377.85 139.975 363.607 126.174 363.607 109.149Z" fill="#000000" fill-rule="nonzero" opacity="1" stroke="none"/>
<path d="M796.606 389.832C796.606 367.533 815.657 349.457 839.158 349.457C862.658 349.457 881.709 367.533 881.709 389.832C881.709 412.13 862.658 430.206 839.158 430.206C815.657 430.206 796.606 412.13 796.606 389.832Z" fill="#000000" fill-rule="nonzero" opacity="1" stroke="none"/>
</g>
</svg>