<?xml version="1.0" encoding="UTF-8" standalone="no"?>
<!-- Created with Inkscape (http://www.inkscape.org/) -->

<svg
   width="210mm"
   height="297mm"
   viewBox="0 0 210 297"
   version="1.1"
   id="svg2495"
   xmlns:inkscape="http://www.inkscape.org/namespaces/inkscape"
   xmlns:sodipodi="http://sodipodi.sourceforge.net/DTD/sodipodi-0.dtd"
   xmlns="http://www.w3.org/2000/svg"
   xmlns:svg="http://www.w3.org/2000/svg">
  <sodipodi:namedview
     id="namedview2497"
     pagecolor="#ffffff"
     bordercolor="#666666"
     borderopacity="1.0"
     inkscape:showpageshadow="2"
     inkscape:pageopacity="0.0"
     inkscape:pagecheckerboard="0"
     inkscape:deskcolor="#d1d1d1"
     inkscape:document-units="mm"
     showgrid="false" />
  <defs
     id="defs2492" />
  <g
     inkscape:label="Layer 1"
     inkscape:groupmode="layer"
     id="layer1">
    <g
       id="Layer-1"
       style="clip-rule:evenodd;fill-rule:nonzero;stroke-linecap:round;stroke-linejoin:round"
       transform="matrix(0.2148068,0,0,0.2148068,1.526349,2.0862567)">
<path
   d="m 425.224,186.138 c -24,2.5 -48,7.25 -72,14.25 -24,7 -44,15.25 -60,24.75 -16,9.5 -28,18.5 -36,27 -8,8.5 -14.25,17.25 -18.75,26.25 -4.5,9 -9,25 -13.5,48 -4.5,23 -7.5,46.5 -9,70.5 -0.75,12 -1.5,24 -2.25,36 24,0 48,0 72,0 48,0 72.108,0.142 72.108,0.142 l 0.108,41.206 c 0,0 -121.216,0.652 -145.716,0.652 0,11.25 0,56.25 0,67.5 24.25,0 145.594,0.463 145.594,0.463 0,0 -0.128,34.853 0.122,41.853 -24.25,0 -146.378,-0.58 -146.378,-0.58 0,0 -0.338,56.514 -0.838,67.764 24.5,0 147.422,0.463 147.422,0.463 0,0 -0.456,34.537 -0.206,41.537 -24.5,0.25 -122.179,0.608 -146.679,0.858 0,13.75 0.321,28.142 0.321,41.892 0,27.5 1.642,54.25 3.642,80.25 2,26 5,46.75 9,62.25 4,15.5 9.75,29.5 17.25,42 7.5,12.5 16,23 25.5,31.5 9.5,8.5 20.5,15.75 33,21.75 12.5,6 25,11.25 37.5,15.75 12.5,4.5 25.75,8 39.75,10.502 14,2.5 39.25,4.25 75.75,5.25 36.5,1 66.5,0.75 90,-0.75 23.5,-1.5 44,-4.5 61.5,-9.002 17.5,-4.5 35.75,-11.25 54.75,-20.25 19,-9 32.25,-17 39.75,-24 7.5,-7 13.75,-14 18.75,-21 5,-7 10.25,-17.5 15.75,-31.5 5.5,-14 9.75,-32.5 12.75,-55.5 3,-23 4.75,-53.5 5.25,-91.5 0.25,-19 0.5,-38.642 0.75,-57.642 -24.25,0 -145.502,0 -145.502,0 0,0 0.002,-35.608 0.002,-42.858 24.25,0 121.25,0 145.5,0 0,-11 -0.321,-56.604 -0.321,-67.604 -24.25,-0.25 -120.929,0.354 -145.179,0.104 0,-7 0,-35 0,-42 24.25,0 121.25,0 145.5,0 0,-11.25 0,-56.25 0,-67.5 -24.25,0 -121.25,0 -145.5,0 0,-7 0,-35 0,-42 24,0 120,0 144,0 -1.25,-15.75 -2.5,-31.5 -3.75,-47.25 -2.5,-31.5 -5.25,-54.25 -8.25,-68.25 -3,-14 -6.5,-25.5 -10.5,-34.5 -4,-9 -10.75,-18.75 -20.25,-29.25 -9.5,-10.5 -18,-18.25 -25.5,-23.25 -7.5,-5 -17.75,-10.5 -30.75,-16.5 -13,-6 -29,-11.5 -48,-16.5 -19,-5 -40.5,-8.75 -64.5,-11.25 -24,-2.5 -43,-3.75 -57,-3.75 -14,0 -33,1.25 -57,3.75 z"
   fill="#000000"
   fill-rule="nonzero"
   opacity="1"
   stroke="none"
   id="path2342" />

<path
   d="m 81.3182,748.341 c -2.7329,15.534 -1.0788,80.537 -0.2142,92.547 2.7793,38.607 18.5638,192.342 267.62,247.502 19.913,4.41 61.453,8.8 77.953,10.3 l 0.721,117.2 H 174.724 v 34.5 34.5 h 615.674 v -34.5 -34.5 H 537.724 c 0,-19.5 -0.162,-117.41 -0.162,-117.41 26.249,-1.1 58.162,-6.09 78.162,-10.09 20,-4 43,-10.75 69,-20.25 26,-9.5 46.25,-18.25 60.75,-26.25 14.5,-8 26.5,-15.5 36,-22.5 9.5,-7 23.5,-20.752 42,-41.252 18.5,-20.5 32,-41 40.5,-61.5 8.5,-20.5 14,-40.25 16.5,-59.25 2.5,-19 3.5,-41.5 3,-67.5 -0.5,-26 -2.25,-42.75 -5.25,-50.25 -3,-7.5 -6.75,-12.75 -11.25,-15.75 -4.5,-3 -10,-4.75 -16.5,-5.25 -6.5,-0.5 -11.25,-0.25 -14.25,0.75 -3,1 -6.75,3.5 -11.25,7.5 -4.5,4 -7.5,7.75 -9,11.25 -1.5,3.5 -2,18.75 -1.5,45.75 0.5,27 -0.25,48.25 -2.25,63.75 -2,15.5 -6.75,31.75 -14.25,48.75 -7.5,17 -14,29.5 -19.5,37.5 -5.5,8 -11.75,15.5 -18.75,22.5 -7,7 -21,16.5 -42,28.5 -21,12 -44,22.002 -69,30.002 -25,8 -49.75,13.75 -74.25,17.25 -24.5,3.5 -50.25,5.5 -77.25,6 -27,0.5 -52.261,-0.13 -75.75,-2.25 -246.55,-22.31 -264.223,-155.783 -269.663,-184.698 -2.714,-14.42 -3.985,-38.587 -2.587,-68.054 2.638,-55.639 -9.733,-62.098 -32.087,-65.608 -15.776,-2.478 -32.3409,11.043 -35.8188,30.811 z"
   fill="#000000"
   fill-rule="nonzero"
   opacity="1"
   stroke="none"
   id="path2344"
   sodipodi:nodetypes="sscccccccccccsssssssssssssssssssssssccccs" />

<path
   d="m 123.235,150.834 c 0,-36.644 29.617,-66.3507 66.152,-66.3507 36.535,0 66.152,29.7067 66.152,66.3507 0,36.645 -29.617,66.351 -66.152,66.351 -36.535,0 -66.152,-29.706 -66.152,-66.351 z"
   fill="#000000"
   fill-rule="nonzero"
   opacity="1"
   stroke="none"
   id="path2346" />

<path
   d="m 147.929,280.02 c 0,-14.169 11.648,-25.656 26.015,-25.656 14.368,0 26.015,11.487 26.015,25.656 0,14.169 -11.647,25.655 -26.015,25.655 -14.367,0 -26.015,-11.486 -26.015,-25.655 z"
   fill="#000000"
   fill-rule="nonzero"
   opacity="1"
   stroke="none"
   id="path2348" />

<path
   d="m 682.102,153.727 c 0,-14.124 11.506,-25.573 25.7,-25.573 14.193,0 25.699,11.449 25.699,25.573 0,14.123 -11.506,25.573 -25.699,25.573 -14.194,0 -25.7,-11.45 -25.7,-25.573 z"
   fill="#000000"
   fill-rule="nonzero"
   opacity="1"
   stroke="none"
   id="path2350" />

<path
   d="m 122.506,649.352 c 0,-10.249 7.914,-18.556 17.677,-18.556 9.762,0 17.677,8.307 17.677,18.556 0,10.248 -7.915,18.556 -17.677,18.556 -9.763,0 -17.677,-8.308 -17.677,-18.556 z"
   fill="#000000"
   fill-rule="nonzero"
   opacity="1"
   stroke="none"
   id="path2352" />

<path
   d="m 92.1202,558.895 c 0,-16.966 14.4798,-30.719 32.3408,-30.719 17.861,0 32.34,13.753 32.34,30.719 0,16.965 -14.479,30.719 -32.34,30.719 -17.861,0 -32.3408,-13.754 -32.3408,-30.719 z"
   fill="#000000"
   fill-rule="nonzero"
   opacity="1"
   stroke="none"
   id="path2354" />

<path
   d="m 363.607,109.149 c 0,-17.0245 14.243,-30.8257 31.814,-30.8257 17.571,0 31.815,13.8012 31.815,30.8257 0,17.025 -14.244,30.826 -31.815,30.826 -17.571,0 -31.814,-13.801 -31.814,-30.826 z"
   fill="#000000"
   fill-rule="nonzero"
   opacity="1"
   stroke="none"
   id="path2356" />

<path
   d="m 796.606,389.832 c 0,-22.299 19.051,-40.375 42.552,-40.375 23.5,0 42.551,18.076 42.551,40.375 0,22.298 -19.051,40.374 -42.551,40.374 -23.501,0 -42.552,-18.076 -42.552,-40.374 z"
   fill="#000000"
   fill-rule="nonzero"
   opacity="1"
   stroke="none"
   id="path2358" />

</g>
  </g>
</svg>
